<?xml version="1.0" encoding="iso-8859-1"?>
<!-- Uploaded to: SVG Repo, www.svgrepo.com, Generator: SVG Repo Mixer Tools -->
<svg fill="#000000" version="1.1" id="Layer_1" xmlns="http://www.w3.org/2000/svg" xmlns:xlink="http://www.w3.org/1999/xlink" 
	 viewBox="0 0 512 512" xml:space="preserve">
<g>
	<g>
		<rect x="113.004" y="243.673" width="15.791" height="15.791"/>
	</g>
</g>
<g>
	<g>
		<path d="M512,243.671h-32.913c-23.972-45.574-69.351-71.588-125.301-71.588H216.173v-15.368l-50.325-40.429h-37.054v72.034
			c-27.402,11.334-53.985,28.748-68.982,71.142H0l10.579,111.593h46.016c17.432,42.982,49.052,69.66,96.412,81.336v47.102h63.166
			v-40.005h120.015v40.005h63.166v-47.569c58.722-19.15,99.226-74.649,99.226-137.034c0-7.504-1.753-14.439-3.449-21.145
			c-0.305-1.209-0.603-2.387-0.884-3.543L512,272.797V243.671z M476.985,285.011l0.855,4.206c0.575,2.834,1.291,5.664,1.982,8.4
			c1.525,6.034,2.967,11.735,2.967,17.274c0,57.352-38.432,108.167-93.459,123.573l-5.767,1.615v43.623H351.98v-40.005H200.382
			v40.005h-31.583v-43.99l-6.251-1.331c-47.684-10.154-77.277-34.923-93.133-77.951l-1.904-5.166H24.944l-4.491-47.374h12.539
			v-15.791H18.956l-1.597-16.844h53.935l1.737-5.529c11.179-35.582,30.381-52.488,55.762-64.167v13.9h15.791v-87.379h15.705
			l40.091,32.207v39.381h15.791v-15.791h137.613c51.45,0,92.756,24.465,113.327,67.122l2.154,4.466h26.941v6.701h0.001
			L476.985,285.011z"/>
	</g>
</g>
<g>
	<g>
		<rect x="231.966" y="203.668" width="95.801" height="15.791"/>
	</g>
</g>
<g>
	<g>
		<path d="M272.743,12.508c-28.587,0-51.844,23.257-51.844,51.844s23.258,51.844,51.844,51.844s51.844-23.257,51.844-51.844
			S301.329,12.508,272.743,12.508z M272.743,100.245c-19.791,0-35.892-16.101-35.892-35.892s16.101-35.892,35.892-35.892
			c19.791,0,35.893,16.101,35.893,35.892S292.534,100.245,272.743,100.245z"/>
	</g>
</g>
<g>
	<g>
		<path d="M277.028,59.31c-6.495-2.445-9.173-4.05-9.173-6.569c0-2.141,1.605-4.278,6.569-4.278c5.505,0,9.014,1.754,11.001,2.594
			l2.221-8.632c-2.519-1.222-5.963-2.291-11.086-2.519v-6.723h-7.484v7.255c-8.179,1.605-12.92,6.878-12.92,13.601
			c0,7.409,5.585,11.23,13.759,13.983c5.655,1.909,8.1,3.742,8.1,6.644c0,3.056-2.977,4.735-7.335,4.735
			c-4.964,0-9.476-1.6-12.686-3.359l-2.295,8.939c2.902,1.679,7.881,3.056,12.994,3.285v7.26v0.001h7.493v-7.797
			c8.78-1.525,13.595-7.335,13.595-14.132C289.784,66.719,286.117,62.52,277.028,59.31z"/>
	</g>
</g>
</svg>